HIERARCHY
ROOT SpineBase
{
  OFFSET 0.000000 0.000000 0.000000
  CHANNELS 6 Xposition Yposition Zposition Zrotation Xrotation Yrotation
  JOINT SpineMid
  {
    OFFSET -0.000000 32.938669 0.000000
    CHANNELS 3 Zrotation Xrotation Yrotation
    JOINT SpineShoulder
    {
      OFFSET -0.025165 24.285566 -0.864237
      CHANNELS 3 Zrotation Xrotation Yrotation
      JOINT Neck
      {
        OFFSET -0.019318 7.978781 -0.658873
        CHANNELS 3 Zrotation Xrotation Yrotation
        JOINT Head
        {
          OFFSET -8.193846 10.311031 5.269161
          CHANNELS 3 Zrotation Xrotation Yrotation
          End Site
          {
            OFFSET 0 0 0
          }
        }
      }
      JOINT ShoulderLeft
      {
        OFFSET -6.348348 -7.744896 -14.136893
        CHANNELS 3 Zrotation Xrotation Yrotation
        JOINT ElbowLeft
        {
          OFFSET 1.555906 -30.256599 -11.024978
          CHANNELS 3 Zrotation Xrotation Yrotation
          JOINT WristLeft
          {
            OFFSET -3.257691 -13.593635 26.505126
            CHANNELS 3 Zrotation Xrotation Yrotation
            JOINT HandLeft
            {
              OFFSET 1.703281 -6.249701 -6.170633
              CHANNELS 3 Zrotation Xrotation Yrotation
              JOINT HandTipLeft
              {
                OFFSET 1.287490 -2.833986 1.280584
                CHANNELS 3 Zrotation Xrotation Yrotation
                End Site
                {
                  OFFSET 0 0 0
                }
              }
              JOINT ThumbLeft
              {
                OFFSET 1.849274 -2.270999 -3.178606
                CHANNELS 3 Zrotation Xrotation Yrotation
                End Site
                {
                  OFFSET 0 0 0
                }
              }
            }
          }
        }
      }
      JOINT ShoulderRight
      {
        OFFSET 6.199672 -6.510202 -12.875326
        CHANNELS 3 Zrotation Xrotation Yrotation
        JOINT ElbowRight
        {
          OFFSET 6.192623 -28.679718 -8.980822
          CHANNELS 3 Zrotation Xrotation Yrotation
          JOINT WristRight
          {
            OFFSET -2.598068 -22.411133 -6.610285
            CHANNELS 3 Zrotation Xrotation Yrotation
            JOINT HandRight
            {
              OFFSET -0.569218 -6.002486 0.052727
              CHANNELS 3 Zrotation Xrotation Yrotation
              JOINT HandTipRight
              {
                OFFSET -1.433620 -7.578049 1.621382
                CHANNELS 3 Zrotation Xrotation Yrotation
                End Site
                {
                  OFFSET 0 0 0
                }
              }
              JOINT ThumbRight
              {
                OFFSET -3.157720 -0.197023 -1.633034
                CHANNELS 3 Zrotation Xrotation Yrotation
                End Site
                {
                  OFFSET 0 0 0
                }
              }
            }
          }
        }
      }
    }
  }
  JOINT HipLeft
  {
    OFFSET -8.250850 1.456874 0.037782
    CHANNELS 3 Zrotation Xrotation Yrotation
    JOINT KneeLeft
    {
      OFFSET 27.495788 -39.822938 12.602202
      CHANNELS 3 Zrotation Xrotation Yrotation
      JOINT AnkleLeft
      {
        OFFSET 3.055216 -43.020315 1.541614
        CHANNELS 3 Zrotation Xrotation Yrotation
        JOINT FootLeft
        {
          OFFSET 1.122072 1.257912 -13.846248
          CHANNELS 3 Zrotation Xrotation Yrotation
          End Site
          {
            OFFSET 0 0 0
          }
        }
      }
    }
  }
  JOINT HipRight
  {
    OFFSET 7.950713 0.246919 -8.131921
    CHANNELS 3 Zrotation Xrotation Yrotation
    JOINT KneeRight
    {
      OFFSET 3.619538 -36.717772 -7.497221
      CHANNELS 3 Zrotation Xrotation Yrotation
      JOINT AnkleRight
      {
        OFFSET 14.403784 -36.531645 -4.613155
        CHANNELS 3 Zrotation Xrotation Yrotation
        JOINT FootRight
        {
          OFFSET 0.275806 -4.799128 -11.530461
          CHANNELS 3 Zrotation Xrotation Yrotation
          End Site
          {
            OFFSET 0 0 0
          }
        }
      }
    }
  }
}
MOTION
Frames: 10
Frame Time: 0.033333
9.613962 84.498120 301.245250 0.000000 0.000000 26.759709 -0.000000 0.000000 -26.759709 -0.000000 0.000000 0.000000 -0.000000 0.000000 0.000000 0.000000 0.000000 0.000000 -0.000000 0.000000 0.000000 -0.000000 0.000000 0.000000 -0.000000 0.000000 0.000000 -0.000000 0.000000 0.000000 0.000000 0.000000 0.000000 0.000000 0.000000 0.000000 -0.000000 0.000000 0.000000 -0.000000 0.000000 0.000000 -0.000000 0.000000 0.000000 -0.000000 0.000000 0.000000 0.000000 0.000000 0.000000 0.000000 0.000000 0.000000 -0.000000 0.000000 -26.759709 -0.000000 0.000000 0.000000 -0.000000 0.000000 0.000000 0.000000 0.000000 0.000000 -0.000000 0.000000 -26.759709 -0.000000 0.000000 0.000000 -0.000000 0.000000 0.000000 0.000000 0.000000 0.000000
10.122725 84.569421 299.036956 0.214869 -0.253547 25.745846 -0.083405 0.321711 -25.745137 -0.000000 0.000000 0.000000 0.400462 0.937200 0.533145 0.000000 0.000000 0.000000 -0.000000 0.000000 0.000000 -0.000000 0.000000 0.000000 -1.843337 1.209983 2.156136 -0.822368 12.497116 3.322830 0.000000 0.000000 0.000000 0.000000 0.000000 0.000000 -0.531796 1.149392 0.419154 -0.784562 0.252226 -0.192956 -1.673211 4.100632 -0.685912 0.743861 -0.855276 -0.803643 0.000000 0.000000 0.000000 0.000000 0.000000 0.000000 -0.083405 0.321711 -25.745137 -2.879560 -4.583386 -0.544334 -0.480914 -10.418782 -9.558977 0.000000 0.000000 0.000000 0.686823 -1.306993 -26.136604 -2.729782 -0.188049 0.075560 0.814584 -3.788266 1.438689 0.000000 0.000000 0.000000
10.642826 84.568908 296.962963 0.444941 -0.497279 24.989645 -0.193227 0.638685 -24.986637 -0.000000 0.000000 0.000000 0.791269 1.791109 0.993311 0.000000 0.000000 0.000000 -0.000000 0.000000 0.000000 -0.000000 0.000000 0.000000 -3.544491 2.348707 4.162646 -6.086788 29.645390 10.021453 0.000000 0.000000 0.000000 0.000000 0.000000 0.000000 -0.997231 2.114241 0.784181 -1.362167 0.398460 -0.378137 -2.432942 7.062273 -1.109920 0.787663 -0.742439 -1.574785 0.000000 0.000000 0.000000 0.000000 0.000000 0.000000 -1.266212 1.781525 -25.022493 -3.555240 -9.852999 -1.231124 -6.122313 -23.053216 -22.638398 0.000000 0.000000 0.000000 1.225586 -2.462749 -25.713588 -5.130120 -0.416733 0.142175 1.731622 -6.806147 2.585896 0.000000 0.000000 0.000000
11.174265 84.496582 295.023269 0.689529 -0.730373 24.497150 -0.036613 -0.071855 -24.468705 0.005964 -0.044893 0.031698 0.488091 3.420128 1.316427 0.000000 0.000000 0.000000 -0.691171 0.856495 -0.049868 -0.000000 0.000000 0.000000 -4.863341 3.338607 5.752798 -17.028288 43.037751 18.599629 0.000000 0.000000 0.000000 0.000000 0.000000 0.000000 -2.076872 3.740046 1.056875 -1.741457 0.447184 -0.546576 -2.526340 9.157032 -1.389071 0.418109 -0.165591 -2.248680 0.000000 0.000000 0.000000 0.000000 0.000000 0.000000 -2.654960 2.708995 -24.886549 -3.031354 -14.360743 -1.477928 -14.507038 -31.199948 -34.439693 0.000000 0.000000 0.000000 1.588528 -3.467733 -25.498870 -7.182661 -0.681869 0.182924 2.720796 -8.430536 3.315598 0.000000 0.000000 0.000000
11.717042 84.352441 293.217875 0.947846 -0.952069 24.271593 -0.047783 -0.097820 -24.230332 0.009735 -0.057395 0.043915 0.611324 4.378531 1.610722 0.000000 0.000000 0.000000 -0.952790 1.119538 -0.066717 -0.000000 0.000000 0.000000 -5.518403 4.097107 6.613230 -25.753070 44.761082 19.123355 0.000000 0.000000 0.000000 0.000000 0.000000 0.000000 -2.644192 4.565916 1.283232 -1.930960 0.406528 -0.690286 -2.116825 10.603609 -1.581551 -0.174200 0.501815 -2.771078 0.000000 0.000000 0.000000 0.000000 0.000000 0.000000 -4.595033 3.668437 -25.265084 -0.305979 -18.034938 -1.063282 -20.264734 -33.746598 -39.576378 0.000000 0.000000 0.000000 1.752285 -4.320123 -25.497904 -8.872708 -0.978332 0.182168 3.730557 -8.200288 3.534446 0.000000 0.000000 0.000000
12.271158 84.136486 291.546780 1.219019 -1.161684 24.313554 -0.058917 -0.124449 -24.257844 0.014374 -0.068616 0.056880 0.721455 5.249218 1.837862 0.000000 0.000000 0.000000 -1.228664 1.370063 -0.083541 -0.000000 0.000000 0.000000 -5.253416 4.531992 6.455869 -25.516382 32.809940 5.002264 0.000000 0.000000 0.000000 0.000000 0.000000 0.000000 -3.135713 5.165931 1.432529 -1.937719 0.283370 -0.802782 -1.299397 11.554511 -1.716808 -0.886107 1.016685 -3.107727 0.000000 0.000000 0.000000 0.000000 0.000000 0.000000 -7.099439 4.687342 -26.162053 4.894378 -20.397315 0.246794 -21.924972 -32.888074 -37.433155 0.000000 0.000000 0.000000 1.698240 -5.014581 -25.713035 -10.188613 -1.300907 0.125748 4.724776 -5.922596 3.210534 0.000000 0.000000 0.000000
12.966898 82.989836 290.228781 1.491617 -1.472696 24.987308 -0.105980 -0.322063 -24.911975 0.015176 -0.037196 0.070744 1.682219 7.264075 2.207490 0.000000 0.000000 0.000000 -1.542887 1.849875 -0.098160 -0.000000 0.000000 0.000000 -3.199376 6.162470 4.791978 -17.774431 0.198239 -13.833917 0.000000 0.000000 0.000000 0.000000 0.000000 0.000000 -3.507814 5.848361 1.501677 -1.955503 0.163072 -0.859590 0.957458 11.159781 -1.833952 -2.097573 1.011170 -3.064391 0.000000 0.000000 0.000000 0.000000 0.000000 0.000000 -10.898170 6.218432 -28.228155 17.573190 -20.473053 3.636381 -18.105260 -22.898992 -20.333126 0.000000 0.000000 0.000000 1.604991 -5.103455 -26.477423 -11.207932 -2.081740 -0.107259 5.292919 -6.732275 4.308923 0.000000 0.000000 0.000000
13.570823 82.733697 288.943205 1.774922 -1.603501 25.796033 -0.100687 -0.223270 -25.706255 0.033068 -0.130391 0.084917 1.953030 7.879021 2.222238 0.000000 0.000000 0.000000 -1.809719 1.983256 -0.113493 -0.000000 0.000000 0.000000 -1.177800 5.120945 2.508065 -17.638006 -7.536165 -15.015740 0.000000 0.000000 0.000000 0.000000 0.000000 0.000000 -3.597795 5.574738 1.331281 -1.620097 0.210294 -0.808297 2.814417 11.522079 -1.880645 -3.000709 0.022401 -2.751580 0.000000 0.000000 0.000000 0.000000 0.000000 0.000000 -14.914027 7.714765 -30.497866 28.292907 -17.363080 6.313354 -15.653242 -5.636142 -5.851021 0.000000 0.000000 0.000000 0.795261 -5.298036 -27.293546 -11.252867 -2.403648 -0.402397 5.947478 -0.015867 3.159548 0.000000 0.000000 0.000000
14.071291 83.309189 287.146432 2.098817 -1.681043 26.045080 -0.051373 -0.018668 -25.941509 0.032413 -0.160468 0.098998 1.410950 7.319631 2.028696 0.000000 0.000000 0.000000 -2.088034 1.886912 -0.133674 -0.000000 0.000000 0.000000 1.351745 3.159313 -0.495641 -19.652374 -12.405556 -15.050661 0.000000 0.000000 0.000000 0.000000 0.000000 0.000000 -3.908423 5.309904 1.282329 -0.588508 -0.794372 -0.936390 4.697305 11.854879 -1.899907 -4.635545 0.934156 -2.775478 0.000000 0.000000 0.000000 0.000000 0.000000 0.000000 -19.217506 9.075094 -32.306115 36.889657 -13.734917 8.091328 -17.917983 -0.272897 -0.498138 0.000000 0.000000 0.000000 -0.054545 -5.944151 -27.618217 -11.583896 -2.509060 -0.609871 7.323891 9.048847 0.560182 0.000000 0.000000 0.000000
14.419099 84.519793 285.488181 2.438512 -1.646742 26.032486 -0.009562 0.188610 -25.917678 0.023151 -0.150877 0.112426 -0.251633 5.471580 1.631430 0.000000 0.000000 0.000000 -2.365100 1.640208 -0.157696 -0.000000 0.000000 0.000000 3.671181 0.366541 -3.495162 -19.417121 -11.227928 -10.332821 0.000000 0.000000 0.000000 0.000000 0.000000 0.000000 -4.208142 4.758241 1.189884 0.552722 -1.954541 -1.018166 5.314292 13.443275 -2.025783 -5.173950 0.593967 -2.574102 0.000000 0.000000 0.000000 0.000000 0.000000 0.000000 -22.697853 10.037721 -33.499400 42.382639 -9.345791 8.810235 -19.635194 0.847522 2.058761 0.000000 0.000000 0.000000 -1.115857 -6.546400 -27.642472 -11.450408 -2.470723 -0.848252 8.904681 18.380005 -2.482936 0.000000 0.000000 0.000000
